# File created by Blade
# Date/Time:  Tue Apr 07 20:41:02 2015
# Frame Rate: 120.000 fps
#------------------------------------------------------
:FULLY-SPECIFIED
:DEGREES
911
root 3.840013 34.292957 -2.142760 5.672939 -7.776121 -45.327009
Spine 4.322953 20.637672 35.024663
Head 2.861683 -13.910936 7.426907
LeftShoulder -19.620464 15.780202 38.326960
LeftArm 113.300307 -71.235476 -76.308761
LeftForeArm 19.963614 -0.000000 36.695190
LeftHand 12.230218 -0.000000 22.890304
LeftHandThumb1 -26.253704 0.000000 33.147579
RightShoulder -6.463581 36.966493 -31.106617
RightArm 55.772038 76.753542 90.874380
RightForeArm 42.304585 -0.000000 60.845324
RightHand 0.984915 -0.000000 29.808103
RightHandThumb1 -24.326973 -0.000000 -32.862282
LeftUpLeg -9.175795 13.305637 40.425714
LeftLeg 22.524546 -0.000000 -0.000000
LeftFoot -22.839171 32.522061 -24.459090
LeftToeBase -5.826181 -0.000000 0.000000
RightUpLeg -137.438564 -53.580772 25.252144
RightLeg -12.555783 -0.000000 0.000000
RightFoot 36.219047 -20.797438 15.831587
RightToeBase 21.735819 -0.000000 -0.000000
912
root 3.882613 34.310719 -2.135487 5.685432 -7.800849 -45.242057
Spine 4.263624 20.433443 35.052219
Head 2.894782 -13.659155 7.274471
LeftShoulder -19.701692 16.026287 38.218107
LeftArm 112.611771 -71.322953 -75.844045
LeftForeArm 20.062699 -0.000000 36.359853
LeftHand 12.425939 -0.000000 22.849102
LeftHandThumb1 -26.253704 0.000000 33.147579
RightShoulder -6.545714 36.975668 -31.214797
RightArm 56.049632 76.722296 91.168819
RightForeArm 42.449940 -0.000000 60.930832
RightHand 1.008122 -0.000000 29.754049
RightHandThumb1 -24.326973 -0.000000 -32.862282
LeftUpLeg -9.070418 13.309022 40.289657
LeftLeg 22.356634 -0.000000 -0.000000
LeftFoot -22.856282 32.323969 -24.692769
LeftToeBase -5.735430 -0.000000 0.000000
RightUpLeg -137.593256 -53.809882 25.487520
RightLeg -12.748029 -0.000000 0.000000
RightFoot 36.128574 -20.761473 15.885367
RightToeBase 21.381871 -0.000000 -0.000000
913
root 3.923513 34.329388 -2.134317 5.762287 -7.910945 -45.198382
Spine 4.192078 20.320736 35.102974
Head 3.020172 -13.391260 7.151078
LeftShoulder -19.689157 16.181756 38.117330
LeftArm 111.661486 -71.532476 -75.032812
LeftForeArm 20.052961 -0.000000 35.864289
LeftHand 12.445089 -0.000000 23.193974
LeftHandThumb1 -26.253704 0.000000 33.147579
RightShoulder -6.601244 37.078624 -31.312707
RightArm 55.922046 76.705460 91.087664
RightForeArm 42.639112 0.000000 60.921886
RightHand 1.041438 -0.000000 29.743639
RightHandThumb1 -24.326973 -0.000000 -32.862282
LeftUpLeg -8.934953 13.320894 40.192246
LeftLeg 22.152437 -0.000000 -0.000000
LeftFoot -22.889876 32.196248 -24.910103
LeftToeBase -5.566972 -0.000000 0.000000
RightUpLeg -137.691245 -53.924850 25.649597
RightLeg -12.860078 -0.000000 0.000000
RightFoot 35.969087 -21.149818 15.952998
RightToeBase 21.402369 -0.000000 -0.000000
914
root 3.961247 34.347240 -2.132930 5.881418 -8.064278 -45.159964
Spine 4.083257 20.239464 35.123199
Head 3.176516 -13.076091 7.092735
LeftShoulder -19.628743 16.240732 38.021786
LeftArm 110.568974 -71.780020 -74.000944
LeftForeArm 19.768207 -0.000000 35.283299
LeftHand 12.445797 -0.000000 22.848950
LeftHandThumb1 -26.253704 0.000000 33.147579
RightShoulder -6.578817 37.044950 -31.337190
RightArm 56.393986 76.725582 91.606583
RightForeArm 42.720065 -0.000000 60.860887
RightHand 1.120022 -0.000000 29.686951
RightHandThumb1 -24.326973 -0.000000 -32.862282
LeftUpLeg -8.784521 13.350265 40.092905
LeftLeg 21.921068 -0.000000 -0.000000
LeftFoot -22.979334 32.100188 -25.148654
LeftToeBase -5.390002 -0.000000 0.000000
RightUpLeg -137.832557 -53.967961 25.814932
RightLeg -12.881526 -0.000000 0.000000
RightFoot 35.992185 -21.609693 15.916625
RightToeBase 21.582719 -0.000000 -0.000000
915
root 3.995323 34.364930 -2.132133 6.031919 -8.275828 -45.167011
Spine 3.963556 20.180215 35.158267
Head 3.394162 -12.744804 7.103374
LeftShoulder -19.635829 16.490439 37.897141
LeftArm 110.336510 -71.971783 -73.826537
LeftForeArm 19.481833 -0.000000 34.691010
LeftHand 12.277449 -0.000000 22.845635
LeftHandThumb1 -26.253704 0.000000 33.147579
RightShoulder -6.496232 37.117839 -31.295682
RightArm 56.546668 76.763283 91.819799
RightForeArm 42.552164 -0.000000 60.804593
RightHand 1.077360 -0.000000 29.519994
RightHandThumb1 -24.326973 -0.000000 -32.862282
LeftUpLeg -8.606005 13.383795 40.040949
LeftLeg 21.689492 -0.000000 -0.000000
LeftFoot -23.089309 32.053213 -25.346575
LeftToeBase -5.211572 -0.000000 0.000000
RightUpLeg -137.940568 -53.994276 25.941977
RightLeg -12.773287 -0.000000 0.000000
RightFoot 36.065444 -21.859943 15.778633
RightToeBase 21.541243 -0.000000 -0.000000
916
root 4.029192 34.379266 -2.133398 6.226939 -8.532650 -45.178121
Spine 3.816156 20.163206 35.179687
Head 3.661946 -12.413041 7.133321
LeftShoulder -19.632429 16.655643 37.795236
LeftArm 110.188800 -72.102396 -73.752561
LeftForeArm 19.097310 0.000000 34.108434
LeftHand 12.116972 -0.000000 22.124907
LeftHandThumb1 -26.253704 0.000000 33.147579
RightShoulder -6.374012 37.143393 -31.247490
RightArm 56.959957 76.811462 92.330875
RightForeArm 42.370672 -0.000000 60.686560
RightHand 1.092399 -0.000000 29.507501
RightHandThumb1 -24.326973 -0.000000 -32.862282
LeftUpLeg -8.401528 13.379874 39.975330
LeftLeg 21.390514 -0.000000 -0.000000
LeftFoot -23.251641 32.128231 -25.537495
LeftToeBase -4.980061 -0.000000 0.000000
RightUpLeg -138.079194 -53.946346 26.055300
RightLeg -12.536692 -0.000000 0.000000
RightFoot 36.174052 -21.878494 15.516542
RightToeBase 21.550694 -0.000000 -0.000000
917
root 4.060713 34.391975 -2.132499 6.414293 -8.821228 -45.210109
Spine 3.713990 20.160675 35.212667
Head 3.839425 -12.034527 7.220322
LeftShoulder -19.673890 16.794381 37.707838
LeftArm 110.329866 -72.152517 -74.000914
LeftForeArm 18.784996 -0.000000 33.577900
LeftHand 11.787256 -0.000000 21.826986
LeftHandThumb1 -26.253704 0.000000 33.147579
RightShoulder -6.267730 37.128302 -31.154488
RightArm 57.546424 76.809166 92.970755
RightForeArm 42.098306 -0.000000 60.564276
RightHand 1.031966 -0.000000 29.405234
RightHandThumb1 -24.326973 -0.000000 -32.862282
LeftUpLeg -8.149834 13.411174 39.926200
LeftLeg 21.063960 -0.000000 -0.000000
LeftFoot -23.258595 32.292495 -25.521937
LeftToeBase -4.829434 -0.000000 0.000000
RightUpLeg -138.107327 -53.986379 26.057771
RightLeg -12.237432 -0.000000 0.000000
RightFoot 36.249170 -21.456385 15.255292
RightToeBase 21.732702 -0.000000 -0.000000
918
root 4.090403 34.400360 -2.138016 6.666722 -9.142832 -45.247421
Spine 3.580192 20.230029 35.217440
Head 3.988761 -11.661327 7.341240
LeftShoulder -19.707171 16.851311 37.682323
LeftArm 110.532625 -72.126959 -74.388308
LeftForeArm 18.558047 -0.000000 33.131593
LeftHand 11.568982 -0.000000 21.386519
LeftHandThumb1 -26.253704 0.000000 33.147579
RightShoulder -6.161262 37.197478 -31.056327
RightArm 57.372197 76.788945 92.854532
RightForeArm 41.912619 -0.000000 60.439448
RightHand 1.101582 -0.000000 29.189829
RightHandThumb1 -24.326973 -0.000000 -32.862282
LeftUpLeg -7.954649 13.436125 39.856980
LeftLeg 20.735270 -0.000000 -0.000000
LeftFoot -23.197400 32.652844 -25.385864
LeftToeBase -4.774571 -0.000000 0.000000
RightUpLeg -138.157499 -53.904440 26.063702
RightLeg -11.996109 -0.000000 0.000000
RightFoot 36.293952 -21.351931 15.231507
RightToeBase 21.730942 -0.000000 -0.000000
919
root 4.120228 34.405380 -2.147574 6.968540 -9.494663 -45.296740
Spine 3.439761 20.349228 35.218380
Head 4.068207 -11.275348 7.482579
LeftShoulder -19.800332 16.899731 37.678973
LeftArm 110.779158 -72.039864 -74.874651
LeftForeArm 18.286004 -0.000000 32.772197
LeftHand 11.385742 -0.000000 20.966386
LeftHandThumb1 -26.253704 0.000000 33.147579
RightShoulder -6.061302 37.145002 -30.952062
RightArm 57.183681 76.715936 92.683184
RightForeArm 41.815967 0.000000 60.309275
RightHand 1.157649 0.000000 29.228059
RightHandThumb1 -24.326973 -0.000000 -32.862282
LeftUpLeg -7.813370 13.467842 39.781576
LeftLeg 20.442828 -0.000000 -0.000000
LeftFoot -23.215724 33.096170 -25.326948
LeftToeBase -4.640126 -0.000000 0.000000
RightUpLeg -138.137275 -53.820079 26.008063
RightLeg -11.846200 -0.000000 0.000000
RightFoot 36.330236 -21.324615 15.325860
RightToeBase 21.829418 -0.000000 -0.000000
920
root 4.150184 34.408965 -2.161780 7.313951 -9.829283 -45.381270
Spine 3.267819 20.520990 35.259588
Head 4.136864 -10.907106 7.570849
LeftShoulder -19.931114 17.110551 37.624606
LeftArm 111.697083 -71.901144 -76.062528
LeftForeArm 18.222258 -0.000000 32.493310
LeftHand 11.142994 -0.000000 20.592256
LeftHandThumb1 -26.253704 0.000000 33.147579
RightShoulder -5.965382 37.110071 -30.845617
RightArm 56.707322 76.628705 92.179933
RightForeArm 41.754167 -0.000000 60.259857
RightHand 1.152878 -0.000000 29.197135
RightHandThumb1 -24.326973 -0.000000 -32.862282
LeftUpLeg -7.772200 13.450140 39.732842
LeftLeg 20.263410 -0.000000 -0.000000
LeftFoot -23.270955 33.538331 -25.325281
LeftToeBase -4.513868 -0.000000 0.000000
RightUpLeg -138.130547 -53.727852 26.009175
RightLeg -11.777981 -0.000000 0.000000
RightFoot 36.345597 -21.329043 15.430602
RightToeBase 21.987491 -0.000000 -0.000000
